HIERARCHY
ROOT Hips
{
	OFFSET 0.000000 0.000000 0.000000
	CHANNELS 6 Xposition Yposition Zposition Xrotation Yrotation Zrotation
	JOINT LeftUpLeg_virtual
	{
		OFFSET 0.000000 0.000000 0.000000
		CHANNELS 3 Xrotation Yrotation Zrotation
		JOINT LeftUpLeg
		{
			OFFSET 13.026900 -6.336304 -1.092800
			CHANNELS 3 Xrotation Yrotation Zrotation
			JOINT LeftLeg
			{
				OFFSET 0.524474 -46.096886 9.782700
				CHANNELS 3 Xrotation Yrotation Zrotation
				JOINT LeftFoot
				{
					OFFSET -0.524474 -53.427422 -12.948200
					CHANNELS 3 Xrotation Yrotation Zrotation
					JOINT LeftToeBase
					{
						OFFSET 0.192200 -14.009700 16.364100
						CHANNELS 3 Xrotation Yrotation Zrotation
						JOINT LeftToe_End
						{
							OFFSET -1.784700 -0.561700 9.474800
							CHANNELS 3 Xrotation Yrotation Zrotation
							End Site
							{
								OFFSET 0 0 0
							}
						}
					}
				}
			}
		}
	}
	JOINT RightUpLeg_virtual
	{
		OFFSET 0.000000 0.000000 0.000000
		CHANNELS 3 Xrotation Yrotation Zrotation
		JOINT RightUpLeg
		{
			OFFSET -12.883000 -6.336304 -1.092800
			CHANNELS 3 Xrotation Yrotation Zrotation
			JOINT RightLeg
			{
				OFFSET -0.524587 -46.096825 9.782800
				CHANNELS 3 Xrotation Yrotation Zrotation
				JOINT RightFoot
				{
					OFFSET 0.524587 -53.427383 -12.948300
					CHANNELS 3 Xrotation Yrotation Zrotation
					JOINT RightToeBase
					{
						OFFSET -0.192200 -14.009700 16.364100
						CHANNELS 3 Xrotation Yrotation Zrotation
						JOINT RightToe_End
						{
							OFFSET 1.784700 -0.561700 9.474800
							CHANNELS 3 Xrotation Yrotation Zrotation
							End Site
							{
								OFFSET 0 0 0
							}
						}
					}
				}
			}
		}
	}
	JOINT Spine_virtual
	{
		OFFSET 0.000000 0.000000 0.000000
		CHANNELS 3 Xrotation Yrotation Zrotation
		JOINT Spine
		{
			OFFSET 0.072000 7.257294 -0.789700
			CHANNELS 3 Xrotation Yrotation Zrotation
			JOINT Spine1
			{
				OFFSET 0.000000 12.508769 -0.658067
				CHANNELS 3 Xrotation Yrotation Zrotation
				JOINT Spine1_split
				{
					OFFSET 0.000000 12.508769 -0.658067
					CHANNELS 3 Xrotation Yrotation Zrotation
					JOINT Spine2
					{
						OFFSET 0.000000 12.508769 -0.658067
						CHANNELS 3 Xrotation Yrotation Zrotation
						JOINT Neck_virtual
						{
							OFFSET 0.000000 0.000000 0.000000
							CHANNELS 3 Xrotation Yrotation Zrotation
							JOINT Neck
							{
								OFFSET 0.000000 14.033295 7.520400
								CHANNELS 3 Xrotation Yrotation Zrotation
								JOINT Head
								{
									OFFSET 0.000000 8.198502 5.703100
									CHANNELS 3 Xrotation Yrotation Zrotation
									JOINT HeadTop_End
									{
										OFFSET 0.000000 17.760803 13.332701
										CHANNELS 3 Xrotation Yrotation Zrotation
										End Site
										{
											OFFSET 0 0 0
										}
									}
								}
							}
						}
						JOINT LeftShoulder_virtual
						{
							OFFSET 0.000000 0.000000 0.000000
							CHANNELS 3 Xrotation Yrotation Zrotation
							JOINT LeftShoulder
							{
								OFFSET 6.292450 5.785301 -0.669000
								CHANNELS 3 Xrotation Yrotation Zrotation
								JOINT LeftShoulder_split
								{
									OFFSET 6.292450 5.785301 -0.669000
									CHANNELS 3 Xrotation Yrotation Zrotation
									JOINT LeftArm
									{
										OFFSET 13.907140 -6.093903 1.965100
										CHANNELS 3 Xrotation Yrotation Zrotation
										JOINT LeftForeArm
										{
											OFFSET 34.140198 0.000000 0.000000
											CHANNELS 3 Xrotation Yrotation Zrotation
											JOINT LeftHand
											{
												OFFSET 40.960209 0.000000 0.000000
												CHANNELS 3 Xrotation Yrotation Zrotation
												End Site
												{
													OFFSET 0 0 0
												}
											}
										}
									}
								}
							}
						}
						JOINT RightShoulder_virtual
						{
							OFFSET 0.000000 0.000000 0.000000
							CHANNELS 3 Xrotation Yrotation Zrotation
							JOINT RightShoulder
							{
								OFFSET -6.292450 5.785301 -0.669000
								CHANNELS 3 Xrotation Yrotation Zrotation
								JOINT RightShoulder_split
								{
									OFFSET -6.292450 5.785301 -0.669000
									CHANNELS 3 Xrotation Yrotation Zrotation
									JOINT RightArm
									{
										OFFSET -13.907140 -6.093903 1.965100
										CHANNELS 3 Xrotation Yrotation Zrotation
										JOINT RightForeArm
										{
											OFFSET -34.140198 0.000000 0.000000
											CHANNELS 3 Xrotation Yrotation Zrotation
											JOINT RightHand
											{
												OFFSET -40.960209 0.000000 0.000000
												CHANNELS 3 Xrotation Yrotation Zrotation
												End Site
												{
													OFFSET 0 0 0
												}
											}
										}
									}
								}
							}
						}
					}
				}
			}
		}
	}
}
MOTION
Frames: 7
Frame Time: 0.03333333
0.032772 112.911385 -8.540447 0.000000 0.000000 0.000000 2.582589 -8.213096 11.619292 -34.105832 2.193584 -10.324635 4.534656 1.892865 2.720377 22.141972 -23.377403 3.647495 2.880940 1.517383 -0.157211 0.000000 0.000000 0.000000 2.680043 -7.489882 11.658805 11.185554 -18.629630 -9.245837 23.326950 14.391637 -1.700862 -19.448923 -14.502957 6.169665 -17.142639 3.891216 -1.419887 0.000000 0.000000 0.000000 2.047376 -3.490287 9.879910 3.121797 3.796522 1.156200 4.808436 6.044688 1.983324 0.076089 -0.948132 0.180306 0.000000 0.000000 0.000000 5.517159 8.328481 2.482068 -15.180609 -1.564388 5.712494 1.475455 -28.684653 -23.469146 0.000000 0.000000 0.000000 3.830301 6.975488 1.758978 -1.914594 -6.244714 -7.876149 4.223928 3.699026 -2.493472 -17.454864 -29.610192 -72.684414 9.090992 -63.276402 6.120363 0.000000 0.000000 0.000000 5.637189 7.147323 2.386288 -2.252907 13.357241 17.228922 -9.785041 -0.182827 1.308316 -32.413595 57.466766 71.957450 -9.501302 35.830339 9.429098 0.000000 0.000000 0.000000 
0.103227 113.026260 -8.648083 0.000000 0.000000 0.000000 2.641825 -7.693439 11.425608 -33.996201 1.794957 -10.372255 4.500031 1.935928 2.783018 21.781113 -23.591161 3.917607 2.988364 1.511671 -0.179544 0.000000 0.000000 0.000000 2.625526 -7.013067 11.455410 11.420075 -18.683212 -9.201148 22.763892 14.429417 -1.674060 -19.636678 -14.639394 6.467679 -17.071991 3.956865 -1.563877 0.000000 0.000000 0.000000 2.306913 -3.287104 9.691300 3.073970 3.801757 1.290088 4.800438 6.008140 1.966860 0.112677 -0.933472 0.184697 0.000000 0.000000 0.000000 5.539910 8.289407 2.463364 -15.030448 -1.469858 5.633929 1.482288 -28.736453 -23.480756 0.000000 0.000000 0.000000 3.774094 6.940215 1.731184 -1.911278 -6.320052 -7.870366 4.431013 3.561346 -2.411464 -17.762527 -29.690668 -72.771561 9.183224 -63.402160 6.200638 0.000000 0.000000 0.000000 5.600111 7.113799 2.384667 -2.205538 13.168898 17.090387 -10.055188 -0.249093 1.263979 -32.770551 57.471875 72.162342 -9.645608 36.255792 9.511112 0.000000 0.000000 0.000000 
0.157339 113.165977 -8.801968 0.000000 0.000000 0.000000 2.630739 -7.282174 11.076951 -33.975851 1.547705 -10.275279 4.812678 1.935255 2.913697 21.310822 -24.043895 3.758559 3.117586 1.511959 -0.118427 0.000000 0.000000 0.000000 2.590596 -6.814279 11.084002 11.972853 -19.112182 -8.877505 21.417564 14.471238 -1.562563 -20.316338 -14.758517 6.408694 -15.868601 4.018281 -1.892455 0.000000 0.000000 0.000000 2.548682 -3.106410 9.350510 3.097690 3.860429 1.563467 4.754247 5.951905 1.901024 0.136409 -0.902221 0.176598 0.000000 0.000000 0.000000 5.547228 8.230216 2.395420 -14.941720 -1.402517 5.642757 1.465885 -28.780191 -23.398241 0.000000 0.000000 0.000000 3.707550 6.879820 1.653512 -1.910062 -6.438819 -7.863796 4.604762 3.456442 -2.349212 -18.164000 -29.932464 -72.811551 9.239502 -63.539016 6.246737 0.000000 0.000000 0.000000 5.543922 7.054382 2.337899 -2.159011 12.890929 16.908278 -10.268587 -0.300445 1.475947 -33.003805 57.361957 72.224538 -9.961057 37.005842 9.701111 0.000000 0.000000 0.000000 
0.175067 113.258652 -8.908909 0.000000 0.000000 0.000000 2.546473 -7.091083 10.637303 -33.982199 1.440100 -10.099078 5.282510 1.926884 3.124301 20.690706 -24.652086 3.267048 3.140574 1.507842 0.051632 0.000000 0.000000 0.000000 2.569897 -6.897061 10.613482 12.712741 -19.861656 -8.321182 19.823366 14.444935 -1.376600 -21.114855 -14.894191 6.013828 -14.095480 4.058434 -2.312290 0.000000 0.000000 0.000000 2.706689 -3.021510 8.928802 3.169120 3.980814 1.919932 4.674404 5.885061 1.793239 0.137141 -0.872247 0.162324 0.000000 0.000000 0.000000 5.530814 8.163019 2.290641 -14.917803 -1.372827 5.727092 1.415448 -28.829802 -23.226548 0.000000 0.000000 0.000000 3.626328 6.806503 1.536867 -1.908919 -6.565229 -7.855102 4.680573 3.385592 -2.268972 -18.559548 -30.304928 -72.783691 9.208510 -63.605604 6.213786 0.000000 0.000000 0.000000 5.471329 6.978803 2.251758 -2.123402 12.554147 16.701679 -10.350580 -0.190766 1.815016 -33.026283 57.185052 72.133778 -10.396065 37.939119 9.975617 0.000000 0.000000 0.000000 
0.148688 113.285545 -8.895847 0.000000 0.000000 0.000000 2.429975 -7.160809 10.155200 -33.949701 1.419098 -9.917659 5.729645 1.934581 3.403573 19.951123 -25.295158 2.639337 3.026089 1.490037 0.281274 0.000000 0.000000 0.000000 2.584194 -7.169777 10.100519 13.460439 -20.763463 -7.690857 18.112045 14.431498 -1.133709 -21.593530 -15.002640 5.754234 -12.876331 4.064972 -2.731275 0.000000 0.000000 0.000000 2.750698 -3.006660 8.464892 3.285600 4.171418 2.303048 4.564953 5.822109 1.662684 0.125617 -0.860782 0.146698 0.000000 0.000000 0.000000 5.479836 8.097566 2.171756 -14.959298 -1.388476 5.862981 1.303788 -28.888647 -22.992807 0.000000 0.000000 0.000000 3.534303 6.734952 1.402500 -1.905098 -6.652716 -7.829080 4.680032 3.343667 -2.207970 -18.865522 -30.803699 -72.690036 9.050094 -63.580701 6.074295 0.000000 0.000000 0.000000 5.386872 6.901844 2.139737 -2.104665 12.199257 16.479085 -10.227792 -0.008116 2.037776 -32.859565 56.967896 71.958673 -10.913912 38.971973 10.318474 0.000000 0.000000 0.000000 
0.116906 113.321678 -8.798840 0.000000 0.000000 0.000000 2.397292 -7.399419 9.666684 -33.922227 1.421080 -9.763082 6.103098 2.008676 3.714659 19.184376 -25.879109 2.120136 2.889426 1.457354 0.483591 0.000000 0.000000 0.000000 2.660434 -7.587719 9.563379 14.165598 -21.547884 -7.109164 16.400104 14.520743 -0.903074 -21.655262 -14.992434 5.864944 -12.539594 4.044308 -3.086022 0.000000 0.000000 0.000000 2.786384 -3.035611 7.995765 3.417810 4.423055 2.678683 4.436019 5.773957 1.533499 0.096273 -0.869076 0.138402 0.000000 0.000000 0.000000 5.390867 8.036953 2.063444 -15.051884 -1.435235 6.036706 1.099244 -28.970329 -22.720370 0.000000 0.000000 0.000000 3.422974 6.676197 1.270243 -1.897279 -6.667439 -7.776912 4.649906 3.247228 -2.130100 -19.048945 -31.392530 -72.565473 8.762078 -63.486007 5.834263 0.000000 0.000000 0.000000 5.299764 6.831978 2.021049 -2.102820 11.890459 16.240112 -10.077355 0.077943 2.168990 -32.625806 56.732617 71.804638 -11.489974 40.068205 10.728074 0.000000 0.000000 0.000000 
0.121793 113.395477 -8.666027 0.000000 0.000000 0.000000 2.460140 -7.699882 9.167967 -34.007543 1.401893 -9.609084 6.449148 2.142509 3.997273 18.613939 -26.331349 1.870227 2.885454 1.429078 0.560407 0.000000 0.000000 0.000000 2.780756 -8.109257 9.045794 14.854943 -22.007281 -6.654077 14.760001 14.723864 -0.708518 -21.570656 -14.791622 6.124774 -12.330474 4.010178 -3.337651 0.000000 0.000000 0.000000 2.839041 -3.099946 7.544247 3.551394 4.719323 3.007660 4.311916 5.739985 1.421881 0.072615 -0.889819 0.122194 0.000000 0.000000 0.000000 5.273999 7.986282 1.988393 -15.164919 -1.490789 6.225893 0.805051 -29.099642 -22.430312 0.000000 0.000000 0.000000 3.287113 6.632232 1.153970 -1.881089 -6.608083 -7.700099 4.608888 3.075175 -2.018401 -19.142558 -32.050516 -72.464202 8.373063 -63.362627 5.522695 0.000000 0.000000 0.000000 5.205225 6.775990 1.917191 -2.114126 11.654310 16.000405 -9.992500 0.065644 2.220945 -32.512401 56.425986 71.769155 -12.100203 41.166885 11.187268 0.000000 0.000000 0.000000 
